<svg width="836" height="148" viewBox="0 0 836 148" fill="none" xmlns="http://www.w3.org/2000/svg">
<path d="M260.556 46.8365L222.411 91.3401L259.211 145.63H222.74L188.414 91.109V145.63H154.552L154.529 46.8365H188.392L188.414 90.9152L221.918 46.8365H260.571H260.556ZM319.484 126.937C334.207 126.937 338.385 112.731 338.437 95.7375C338.392 78.7515 334.207 64.5455 319.484 64.5455C303.215 64.5455 300.001 81.0545 299.956 95.7375C300.001 110.428 303.215 126.937 319.484 126.937ZM319.193 43.4825C358.421 43.4825 375.678 65.4772 375.722 95.7375C375.685 126.005 358.421 148 319.193 148C279.965 148 262.708 126.005 262.663 95.7375C262.701 65.4772 279.965 43.4825 319.193 43.4825ZM136.601 46.8439C133.125 21.2344 113.791 0 71.2149 0C22.697 0 0.0597879 30.6703 0 73.4224C0.0597879 116.174 16.9873 148 71.2149 148C113.066 148 132.961 127.183 136.421 101.73H94.8984C91.5877 114.84 84.6896 122.495 71.5886 122.495C45.2968 122.495 41.5601 94.1798 41.5078 73.4224C41.5676 52.665 46.3207 25.1474 71.626 25.1474C84.8391 25.1474 91.7297 33.6591 94.9956 46.8365H136.608L136.601 46.8439ZM647.952 83.8346C648.348 79.1167 649.723 63.1666 665.903 63.1666C682.083 63.1666 683.272 78.1179 683.668 83.8346H647.952ZM718.599 103.906C718.599 86.5849 717.411 77.1416 713.068 68.6746C706.365 54.7072 693.533 43.475 665.903 43.475C629.395 43.475 613.208 64.9331 613.208 97.9959C613.208 131.059 631.764 147.993 666.292 147.993C691.948 147.993 715.236 138.348 718.008 113.543H683.458C682.479 122.793 676.351 127.913 666.494 127.913C647.548 127.913 647.548 109.213 647.548 103.899H718.591L718.599 103.906ZM605.428 46.8365H509.685V70.4858H540.961V145.63H574.189C574.189 120.117 574.144 95.8419 574.144 70.4858H605.42V46.8365H605.428ZM799.432 46.8365L780.965 73.6012L762.498 46.8365H725.744L760.189 94.7015L723.524 145.63H756.631L777.879 116.122L798.685 145.63H835.992L797.743 92.0258L833.347 46.8365H799.432ZM493.639 46.8365H404.548V100.932C404.548 112.351 401.185 115.928 400.512 116.823C396.245 121.295 389.287 120.855 385.027 119.722V145.242C389.063 146.36 393.33 146.807 397.59 146.807C406.341 146.807 416.445 145.921 425.197 136.291C430.354 130.701 435.062 121.295 435.062 102.274V70.4858H461.324V145.473H493.639V46.8365Z" fill="#585956"/>
</svg>
