<svg width="142" height="60" viewBox="0 0 142 60" fill="none" xmlns="http://www.w3.org/2000/svg">
<path d="M73.2821 26.3757H77.8373L83.231 39.7415L88.6248 26.3757H93.18V44.6818H89.0632V34.6671L88.5676 36.2181C88.4342 36.5819 88.3008 36.984 88.1864 37.4245L85.137 44.701H81.3442L78.2947 37.4245C78.1613 36.984 78.0279 36.5819 77.9135 36.2181L77.418 34.6671V44.6818H73.3012V26.3757H73.2821Z" fill="#0D3996"/>
<path d="M96.5534 26.3757H109.742V30.0905H100.766V44.6818H96.5534V26.3757Z" fill="#0D3996"/>
<path d="M109.514 40.8521C109.8 40.9861 110.181 41.1585 110.638 41.1585C111.362 41.1585 111.782 40.6797 111.896 39.7798L113.459 26.3757H125.542V44.6818H121.54V29.9948H116.966L115.746 40.7755C115.46 43.3989 114.202 44.9116 111.42 44.9116C110.352 44.9116 109.685 44.7776 108.866 44.5478L109.514 40.8521Z" fill="#0D3996"/>
<path d="M132.766 38.3436L126.934 26.3757H131.508L134.729 33.3267L137.454 26.3757H141.8L135.415 42.001C134.577 44.0116 133.3 45.0265 131.336 45.0265C130.403 45.0265 129.697 44.9499 128.897 44.6627L129.697 40.4883C130.002 40.6989 130.422 40.9095 130.955 40.9095C131.451 40.9095 131.832 40.718 132.175 39.8181L132.766 38.3436Z" fill="#0D3996"/>
<path d="M14.5226 58.0477C7.33729 58.0477 2.34378 53.6052 2.34378 48.6457C2.34378 45.4861 4.21159 44.1266 6.00315 44.1266C7.73754 44.1266 9.39569 45.3521 9.39569 47.6116C9.39569 50.1967 7.28012 50.4456 7.28012 52.1307C7.28012 52.6477 7.41353 53.4137 8.63332 54.1988C9.91029 55.1562 12.0259 55.7498 14.5989 55.7498C23.004 55.7498 25.6913 48.0904 25.6913 36.4288C22.68 39.4543 19.0206 40.8139 15.4946 40.8139C7.08953 40.8139 0.799988 35.3373 0.799988 26.2609C0.799988 17.6823 7.90907 11.7079 16.3904 11.7079C26.3965 11.7079 32.9338 20.2099 32.9338 32.3884C32.9147 50.369 23.8807 58.0477 14.5226 58.0477ZM16.6382 13.9674C11.435 13.9674 7.60413 18.7929 7.60413 26.28C7.60413 33.6905 11.4541 38.4586 16.6382 38.4586C21.8414 38.4586 25.6723 33.6905 25.6723 26.28C25.6723 18.7929 21.8223 13.9674 16.6382 13.9674Z" fill="#0D3996"/>
<path d="M36.9744 25.7053L39.3949 3.60768H54.3373C58.1873 3.60768 60.1694 2.84174 61.656 0.199219H62.933C62.0944 3.60768 61.8466 7.15019 61.8466 10.0608H41.2627L39.5283 22.5649C42.5968 20.3053 46.199 19.0798 50.4873 19.0798C59.712 19.0798 65.1629 25.9159 65.1629 33.3264C65.1629 42.805 58.4922 49.239 48.753 49.239C41.053 49.239 35.6783 43.7625 35.6783 37.3859C35.6783 34.2264 37.5461 32.752 39.5283 32.752C41.2627 32.752 42.9208 33.9775 42.9208 36.2945C42.9208 39.32 40.6147 39.071 40.6147 40.9284C40.6147 41.9625 40.8624 42.9199 41.8916 44.222C43.2448 45.7731 45.227 46.922 49.077 46.922C55.6905 46.922 58.759 42.0199 58.759 33.8434C58.759 25.7818 54.9091 21.416 49.2675 21.416C45.9894 21.416 41.7582 23.0819 39.2615 25.7244H36.9744V25.7053Z" fill="#56BBD7"/>
<path d="M74.9549 51.9911V57.8138C74.9549 58.1788 75.0853 58.3754 75.5698 58.3754H76.017V58.6188H75.7468C75.5046 58.6188 75.0667 58.5627 74.8337 58.5627H74.0883C73.8554 58.5627 73.4175 58.6188 73.1752 58.6188H72.905V58.3754H73.3523C73.8368 58.3754 73.9672 58.1788 73.9672 57.8138V53.7323C73.9672 53.2549 73.7436 53.0677 73.2591 53.0677H72.9796V52.8243H73.0727C73.9952 52.8243 74.3492 52.5434 74.694 51.9911H74.9549Z" fill="#01A0C6"/>
<path d="M81.4395 54.9399C81.4395 57.561 80.1257 58.675 78.7654 58.675C77.7218 58.675 76.9951 58.0291 76.9951 57.3083C76.9951 56.8496 77.2653 56.653 77.5262 56.653C77.7777 56.653 78.02 56.8308 78.02 57.1585C78.02 57.5329 77.7125 57.5704 77.7125 57.8138C77.7125 57.8887 77.7312 58.001 77.9082 58.1133C78.0945 58.2537 78.402 58.338 78.7747 58.338C79.9953 58.338 80.3866 57.224 80.3866 55.5296C79.9487 55.9696 79.4176 56.1662 78.9051 56.1662C77.6846 56.1662 76.7715 55.3705 76.7715 54.0506C76.7715 52.8055 77.8057 51.935 79.0356 51.935C80.4891 51.935 81.4395 53.1706 81.4395 54.9399ZM80.3866 54.0599C80.3866 52.9741 79.8276 52.272 79.0729 52.272C78.3181 52.272 77.7591 52.9741 77.7591 54.0599C77.7591 55.1365 78.3181 55.8292 79.0729 55.8292C79.8276 55.8292 80.3866 55.1365 80.3866 54.0599Z" fill="#01A0C6"/>
<path d="M83.3026 56.9432C83.3026 57.3925 82.9672 57.3457 82.9672 57.5985C82.9672 57.8231 83.0604 57.9355 83.2001 58.0384C83.4237 58.2163 83.8057 58.338 84.1784 58.338C85.0822 58.338 85.5947 57.7763 85.5947 56.756C85.5947 55.745 85.0543 55.3237 83.8523 55.1833V54.9399C84.9704 54.9024 85.3804 54.3689 85.3804 53.5451C85.3804 52.7307 84.9238 52.272 84.225 52.272C83.8896 52.272 83.5728 52.3562 83.3771 52.5341C83.256 52.637 83.1628 52.7494 83.1628 52.9272C83.1628 53.2549 83.4983 53.2081 83.4983 53.5732C83.4983 53.9008 83.2467 54.0693 82.9951 54.0693C82.7342 54.0693 82.4734 53.8634 82.4734 53.414C82.4734 52.6745 83.1722 51.935 84.2902 51.935C85.4456 51.935 86.2283 52.5996 86.2283 53.4796C86.2283 54.2378 85.8369 54.8369 85.017 55.0522C85.9953 55.2769 86.5264 55.8105 86.5264 56.6623C86.5264 57.8793 85.5574 58.675 84.1784 58.675C82.9485 58.675 82.2497 57.8512 82.2497 57.1023C82.2497 56.6249 82.5106 56.419 82.7995 56.419C83.051 56.419 83.3026 56.6062 83.3026 56.9432Z" fill="#01A0C6"/>
<path d="M92.7018 55.2582V55.3518C92.7018 57.2708 91.5185 58.675 90.0277 58.675C88.537 58.675 87.3536 57.2708 87.3536 55.3518V55.2582C87.3536 53.3391 88.537 51.935 90.0277 51.935C91.5185 51.935 92.7018 53.3391 92.7018 55.2582ZM91.621 55.3518V55.2582C91.621 53.5451 91.1086 52.272 90.0277 52.272C88.9469 52.272 88.4345 53.5451 88.4345 55.2582V55.3518C88.4345 57.0649 88.9469 58.338 90.0277 58.338C91.1086 58.338 91.621 57.0649 91.621 55.3518Z" fill="#01A0C6"/>
<path d="M96.0792 55.5952V55.2582H99.1353V55.5952H96.0792Z" fill="#01A0C6"/>
<path d="M103.314 52.9834C103.314 53.2455 103.649 53.2174 103.649 53.6387C103.649 53.9851 103.398 54.1629 103.146 54.1629C102.876 54.1629 102.597 53.9663 102.597 53.4889C102.597 52.6932 103.426 51.935 104.562 51.935C105.802 51.935 106.78 52.6277 106.78 53.7885C106.78 55.5764 104.423 56.3628 103.538 57.6265H106.631C106.631 58.1976 106.678 58.572 106.799 59.1992H106.556C106.435 58.7405 106.277 58.5627 105.792 58.5627H102.447V58.3942C103.603 56.447 105.792 55.6326 105.792 53.8259C105.792 52.7587 105.215 52.272 104.516 52.272C104.078 52.272 103.798 52.3375 103.547 52.5528C103.407 52.6651 103.314 52.7962 103.314 52.9834Z" fill="#01A0C6"/>
<path d="M112.92 55.2582V55.3518C112.92 57.2708 111.737 58.675 110.246 58.675C108.755 58.675 107.572 57.2708 107.572 55.3518V55.2582C107.572 53.3391 108.755 51.935 110.246 51.935C111.737 51.935 112.92 53.3391 112.92 55.2582ZM111.839 55.3518V55.2582C111.839 53.5451 111.327 52.272 110.246 52.272C109.165 52.272 108.653 53.5451 108.653 55.2582V55.3518C108.653 57.0649 109.165 58.338 110.246 58.338C111.327 58.338 111.839 57.0649 111.839 55.3518Z" fill="#01A0C6"/>
<path d="M114.506 52.9834C114.506 53.2455 114.841 53.2174 114.841 53.6387C114.841 53.9851 114.59 54.1629 114.338 54.1629C114.068 54.1629 113.788 53.9663 113.788 53.4889C113.788 52.6932 114.618 51.935 115.754 51.935C116.994 51.935 117.972 52.6277 117.972 53.7885C117.972 55.5764 115.615 56.3628 114.729 57.6265H117.823C117.823 58.1976 117.869 58.572 117.99 59.1992H117.748C117.627 58.7405 117.469 58.5627 116.984 58.5627H113.639V58.3942C114.795 56.447 116.984 55.6326 116.984 53.8259C116.984 52.7587 116.407 52.272 115.708 52.272C115.27 52.272 114.99 52.3375 114.739 52.5528C114.599 52.6651 114.506 52.7962 114.506 52.9834Z" fill="#01A0C6"/>
<path d="M119.387 55.2582H119.051L119.406 52.0473H121.577C122.136 52.0473 122.424 51.935 122.639 51.5512H122.825C122.704 52.0473 122.667 52.5622 122.667 52.9834H119.676L119.424 54.7995C119.871 54.4718 120.393 54.294 121.017 54.294C122.359 54.294 123.151 55.2863 123.151 56.3628C123.151 57.7389 122.182 58.675 120.766 58.675C119.648 58.675 118.865 57.8793 118.865 56.9525C118.865 56.4938 119.135 56.2785 119.424 56.2785C119.676 56.2785 119.918 56.4564 119.918 56.7934C119.918 57.2334 119.583 57.1959 119.583 57.4674C119.583 57.6172 119.62 57.7576 119.769 57.9448C119.965 58.1695 120.253 58.338 120.812 58.338C121.772 58.338 122.219 57.6265 122.219 56.4377C122.219 55.2675 121.66 54.631 120.84 54.631C120.365 54.631 119.75 54.8744 119.387 55.2582Z" fill="#01A0C6"/>
</svg>
