<svg width="244" height="59" viewBox="0 0 244 59" fill="none" xmlns="http://www.w3.org/2000/svg">
<path d="M45.4753 58.3375V43.2529L29.5766 34.5059L15.9775 42.0245L45.4753 58.3375Z" fill="#0075BB"/>
<path d="M29.5791 34.5062L45.4778 25.7166L29.5791 16.9648V34.5062Z" fill="#0075BB"/>
<path d="M15.9802 9.47955L0 0.683594V50.8573L15.9802 42.0235V9.47955Z" fill="#0075BB"/>
<path d="M65.1593 35.5469V46.7048H63.5938V35.5469H65.1593Z" fill="#0075BB"/>
<path d="M66.8013 38.3462V36.9805H73.3178V38.3462H70.8887V44.8149H69.2304V38.3462H66.8013Z" fill="#0075BB"/>
<path d="M76.2089 44.929C75.5964 44.929 75.0703 44.8058 74.6305 44.5595C74.1907 44.3132 73.8517 43.9643 73.6134 43.5111C73.3752 43.058 73.2568 42.5228 73.2568 41.9023C73.2568 41.2818 73.3752 40.767 73.6134 40.3107C73.8517 39.8544 74.1859 39.4992 74.6193 39.2434C75.0527 38.9892 75.5596 38.8613 76.1433 38.8613C76.5351 38.8613 76.9013 38.9229 77.2419 39.0461C77.5809 39.1692 77.8784 39.3555 78.1326 39.6034C78.3869 39.8513 78.5852 40.1607 78.7275 40.5349C78.8698 40.9091 78.9402 41.3449 78.9402 41.8454V42.2922H73.9157V41.2818H77.3874C77.3874 41.0465 77.3362 40.8397 77.2323 40.6581C77.1284 40.4765 76.986 40.3344 76.8037 40.2318C76.6214 40.1292 76.4103 40.0771 76.1705 40.0771C75.9306 40.0771 75.6987 40.1339 75.5052 40.2476C75.3117 40.3613 75.163 40.5128 75.0543 40.7023C74.9455 40.8918 74.8896 41.1033 74.888 41.3354V42.2954C74.888 42.5859 74.9423 42.837 75.0527 43.0485C75.163 43.2601 75.3181 43.4227 75.5196 43.538C75.7211 43.6532 75.9594 43.7101 76.236 43.7101C76.4199 43.7101 76.5878 43.6848 76.7398 43.6343C76.8917 43.5838 77.0228 43.5064 77.1316 43.4053C77.2403 43.3027 77.3235 43.178 77.3794 43.0312L78.9066 43.1306C78.8298 43.4922 78.6715 43.808 78.4317 44.078C78.1934 44.3464 77.8848 44.5564 77.509 44.7048C77.1332 44.8532 76.6998 44.929 76.2089 44.929Z" fill="#0075BB"/>
<path d="M81.2954 38.9385L82.3876 40.9926L83.507 38.9385H85.2005L83.4766 41.8768L85.2468 44.8151H83.5614L82.3876 42.7846L81.233 44.8151H79.5283L81.2954 41.8768L79.5907 38.9385H81.2954Z" fill="#0075BB"/>
<path d="M87.753 38.9385V44.8135H86.1763V38.9385H87.753ZM90.3181 41.2263V42.5083H87.2109V41.2263H90.3181ZM91.3527 38.9385V44.8135H89.7871V38.9385H91.3527Z" fill="#0075BB"/>
<path d="M95.3201 44.9284C94.7188 44.9284 94.1991 44.8021 93.761 44.5479C93.3228 44.2937 92.9854 43.94 92.7487 43.4853C92.5104 43.0306 92.3921 42.5016 92.3921 41.9001C92.3921 41.2985 92.5104 40.7617 92.7487 40.307C92.987 39.8523 93.3244 39.497 93.761 39.2428C94.1991 38.9886 94.7188 38.8623 95.3201 38.8623C95.9214 38.8623 96.4411 38.9886 96.8793 39.2428C97.3174 39.497 97.6549 39.8507 97.8931 40.307C98.1314 40.7617 98.2497 41.2938 98.2497 41.9001C98.2497 42.5064 98.1314 43.0306 97.8931 43.4853C97.6549 43.94 97.3174 44.2952 96.8793 44.5479C96.4411 44.8021 95.9214 44.9284 95.3201 44.9284ZM95.3281 43.6653C95.6016 43.6653 95.8302 43.5879 96.0141 43.4332C96.198 43.2784 96.3372 43.0684 96.4299 42.8C96.5243 42.5316 96.5722 42.2269 96.5722 41.8859C96.5722 41.5448 96.5243 41.2401 96.4299 40.9717C96.3356 40.7033 96.1964 40.4917 96.0141 40.337C95.8302 40.1823 95.6016 40.1033 95.3281 40.1033C95.0547 40.1033 94.8196 40.1807 94.6325 40.337C94.4454 40.4933 94.3047 40.7049 94.2103 40.9717C94.116 41.2385 94.0696 41.5448 94.0696 41.8859C94.0696 42.2269 94.116 42.5316 94.2103 42.8C94.3047 43.0684 94.4454 43.2784 94.6325 43.4332C94.8196 43.5879 95.0515 43.6653 95.3281 43.6653Z" fill="#0075BB"/>
<path d="M98.9772 44.8145L98.9692 43.5214H99.1675C99.3067 43.5214 99.4282 43.4882 99.5305 43.4203C99.6329 43.3524 99.7176 43.2419 99.7848 43.0888C99.852 42.9356 99.9047 42.7319 99.9431 42.4793C99.9815 42.2251 100.007 41.9125 100.02 41.5399L100.117 38.9395H104.643V44.8145H103.069V40.2199H101.601L101.509 42.0135C101.485 42.5061 101.426 42.9293 101.328 43.283C101.23 43.6382 101.098 43.9271 100.927 44.1529C100.755 44.3787 100.551 44.5445 100.311 44.6519C100.071 44.7592 99.7912 44.8129 99.4746 44.8129H98.9772V44.8145Z" fill="#0075BB"/>
<path d="M108.613 44.9284C108.012 44.9284 107.492 44.8021 107.054 44.5479C106.616 44.2937 106.278 43.94 106.042 43.4853C105.803 43.0306 105.685 42.5016 105.685 41.9001C105.685 41.2985 105.803 40.7617 106.042 40.307C106.28 39.8523 106.617 39.497 107.054 39.2428C107.492 38.9886 108.012 38.8623 108.613 38.8623C109.214 38.8623 109.734 38.9886 110.172 39.2428C110.61 39.497 110.948 39.8507 111.186 40.307C111.424 40.7617 111.543 41.2938 111.543 41.9001C111.543 42.5064 111.424 43.0306 111.186 43.4853C110.948 43.94 110.61 44.2952 110.172 44.5479C109.734 44.8021 109.214 44.9284 108.613 44.9284ZM108.621 43.6653C108.895 43.6653 109.123 43.5879 109.307 43.4332C109.491 43.2784 109.63 43.0684 109.723 42.8C109.817 42.5316 109.865 42.2269 109.865 41.8859C109.865 41.5448 109.817 41.2401 109.723 40.9717C109.629 40.7033 109.489 40.4917 109.307 40.337C109.123 40.1823 108.895 40.1033 108.621 40.1033C108.348 40.1033 108.113 40.1807 107.925 40.337C107.738 40.4933 107.598 40.7049 107.503 40.9717C107.409 41.2385 107.363 41.5448 107.363 41.8859C107.363 42.2269 107.409 42.5316 107.503 42.8C107.598 43.0684 107.738 43.2784 107.925 43.4332C108.113 43.5879 108.344 43.6653 108.621 43.6653Z" fill="#0075BB"/>
<path d="M116.695 38.9385V40.2205H114.223V44.8151H112.619V38.9401H116.695V38.9385Z" fill="#0075BB"/>
<path d="M119.275 42.6646L121.418 38.9385H123.046V44.8135H121.473V41.0763L119.338 44.8135H117.699V38.9385H119.275V42.6646Z" fill="#0075BB"/>
<path d="M125.942 42.6646L128.085 38.9385H129.713V44.8135H128.14V41.0763L126.005 44.8135H124.366V38.9385H125.942V42.6646Z" fill="#0075BB"/>
<path d="M131.999 44.9143C131.743 44.9143 131.524 44.8243 131.341 44.6443C131.159 44.4643 131.068 44.248 131.068 43.9954C131.068 43.7428 131.159 43.5312 131.341 43.3528C131.524 43.1744 131.743 43.0859 131.999 43.0859C132.254 43.0859 132.464 43.1744 132.649 43.3528C132.835 43.5312 132.928 43.7459 132.928 43.9954C132.928 44.1643 132.884 44.3175 132.798 44.4564C132.712 44.5953 132.598 44.7059 132.459 44.7896C132.32 44.8717 132.166 44.9143 131.999 44.9143Z" fill="#0075BB"/>
<path d="M136.04 46.7038V43.494H136.578C136.762 43.3645 136.93 43.1798 137.082 42.9414C137.234 42.7029 137.365 42.373 137.474 41.9498C137.583 41.5282 137.659 40.9756 137.706 40.292L137.93 36.9795H143.18V43.494H144.048V46.6959H142.436V44.8139H137.651V46.7038H136.04ZM138.515 43.494H141.568V38.3452H139.441L139.316 40.292C139.283 40.8099 139.228 41.2693 139.151 41.6688C139.075 42.0698 138.984 42.4187 138.876 42.7187C138.769 43.0187 138.648 43.2761 138.513 43.494H138.515Z" fill="#0075BB"/>
<path d="M146.612 42.6646L148.755 38.9385H150.383V44.8135H148.809V41.0763L146.674 44.8135H145.035V38.9385H146.612V42.6646Z" fill="#0075BB"/>
<path d="M151.396 43.1509H152.997C153.005 43.3451 153.093 43.4983 153.261 43.6104C153.429 43.7225 153.646 43.7793 153.912 43.7793C154.177 43.7793 154.406 43.7177 154.59 43.593C154.774 43.4699 154.865 43.2914 154.865 43.0594C154.865 42.9173 154.828 42.7925 154.756 42.6867C154.684 42.5809 154.583 42.4973 154.454 42.4357C154.324 42.3741 154.175 42.3441 154.004 42.3441H153.149V41.2768H154.004C154.26 41.2768 154.457 41.2184 154.594 41.1015C154.732 40.9847 154.802 40.8379 154.802 40.661C154.802 40.4621 154.73 40.3026 154.586 40.181C154.442 40.0595 154.251 39.9995 154.008 39.9995C153.764 39.9995 153.558 40.0532 153.397 40.1621C153.235 40.271 153.152 40.4116 153.147 40.5852H151.554C151.559 40.2331 151.668 39.9284 151.877 39.6711C152.089 39.4137 152.372 39.2148 152.73 39.0742C153.088 38.9337 153.489 38.8643 153.932 38.8643C154.419 38.8643 154.837 38.9306 155.189 39.0648C155.541 39.199 155.813 39.39 156.003 39.6363C156.194 39.8842 156.288 40.1779 156.288 40.5205C156.288 40.8315 156.184 41.0921 155.978 41.3005C155.771 41.5105 155.482 41.6589 155.109 41.7473V41.8089C155.356 41.8247 155.576 41.8894 155.776 42.0047C155.976 42.1199 156.134 42.2762 156.253 42.4767C156.371 42.6773 156.43 42.9125 156.43 43.1857C156.43 43.5504 156.323 43.863 156.107 44.1235C155.891 44.384 155.594 44.583 155.216 44.7219C154.839 44.8609 154.406 44.9303 153.916 44.9303C153.427 44.9303 153.016 44.8624 152.64 44.7251C152.264 44.5893 151.965 44.3872 151.745 44.1219C151.524 43.8567 151.407 43.533 151.395 43.1509H151.396Z" fill="#0075BB"/>
<path d="M159.145 44.9258C158.766 44.9258 158.427 44.8595 158.13 44.7285C157.833 44.5974 157.599 44.4016 157.426 44.1427C157.254 43.8838 157.169 43.5601 157.169 43.1733C157.169 42.8464 157.23 42.5733 157.351 42.3507C157.473 42.1296 157.638 41.9512 157.847 41.8154C158.056 41.6796 158.295 41.5786 158.562 41.5091C158.829 41.4396 159.11 41.3923 159.405 41.3639C159.75 41.3275 160.03 41.2944 160.241 41.2628C160.452 41.2312 160.606 41.1839 160.701 41.1191C160.797 41.056 160.845 40.9612 160.845 40.8365V40.8144C160.845 40.5713 160.769 40.3849 160.615 40.2523C160.462 40.1197 160.244 40.0534 159.963 40.0534C159.665 40.0534 159.429 40.1181 159.254 40.246C159.078 40.3739 158.962 40.5365 158.906 40.7291L157.378 40.606C157.455 40.2492 157.609 39.9397 157.836 39.6776C158.063 39.4171 158.357 39.215 158.717 39.0729C159.077 38.9308 159.496 38.8613 159.971 38.8613C160.302 38.8613 160.618 38.8992 160.922 38.9766C161.226 39.0524 161.496 39.1724 161.731 39.3318C161.968 39.4929 162.155 39.6981 162.291 39.9492C162.429 40.2002 162.497 40.5002 162.497 40.8491V44.8121H160.932V43.9974H160.885C160.789 44.1806 160.661 44.3416 160.502 44.4806C160.342 44.6195 160.15 44.7285 159.924 44.8058C159.699 44.8832 159.44 44.9227 159.145 44.9227V44.9258ZM159.619 43.8017C159.862 43.8017 160.076 43.7543 160.262 43.658C160.447 43.5617 160.594 43.4322 160.7 43.2696C160.805 43.1069 160.858 42.9222 160.858 42.7154V42.0917C160.807 42.1249 160.737 42.1549 160.647 42.1817C160.558 42.2086 160.458 42.2322 160.346 42.2543C160.234 42.2765 160.124 42.2954 160.014 42.3112C159.903 42.327 159.803 42.3428 159.712 42.3554C159.518 42.3838 159.349 42.428 159.205 42.4896C159.061 42.5512 158.947 42.6333 158.867 42.7359C158.787 42.8401 158.747 42.968 158.747 43.1212C158.747 43.3422 158.829 43.5111 158.994 43.628C159.158 43.7448 159.366 43.8017 159.619 43.8017Z" fill="#0075BB"/>
<path d="M165.357 42.6642L167.499 38.9381H169.127V44.8131H167.554V41.0759L165.419 44.8131H163.78V38.9381H165.357V42.6642ZM167.216 36.8887H168.368C168.365 37.3529 168.192 37.7271 167.846 38.0097C167.501 38.2923 167.036 38.4344 166.45 38.4344C165.865 38.4344 165.395 38.2923 165.051 38.0097C164.707 37.7271 164.536 37.3529 164.536 36.8887H165.68C165.676 37.0639 165.734 37.2234 165.852 37.3639C165.969 37.5044 166.169 37.5739 166.45 37.5739C166.732 37.5739 166.921 37.5044 167.039 37.3671C167.157 37.2297 167.216 37.0702 167.216 36.8887Z" fill="#0075BB"/>
<path d="M172.024 38.9385V44.8135H170.447V38.9385H172.024ZM174.589 41.2263V42.5083H171.481V41.2263H174.589ZM175.623 38.9385V44.8135H174.058V38.9385H175.623Z" fill="#0075BB"/>
<path d="M177.865 44.9143C177.609 44.9143 177.39 44.8243 177.208 44.6443C177.026 44.4643 176.935 44.248 176.935 43.9954C176.935 43.7428 177.026 43.5312 177.208 43.3528C177.39 43.1744 177.609 43.0859 177.865 43.0859C178.121 43.0859 178.331 43.1744 178.516 43.3528C178.702 43.5312 178.794 43.7459 178.794 43.9954C178.794 44.1643 178.751 44.3175 178.665 44.4564C178.578 44.5953 178.465 44.7059 178.326 44.7896C178.187 44.8717 178.033 44.9143 177.865 44.9143Z" fill="#0075BB"/>
<path d="M182.336 36.9805H184.011V41.9082H184.076L187.505 36.9805H188.973V44.8149H187.295V39.884H187.238L183.79 44.8149H182.338V36.9805H182.336Z" fill="#0075BB"/>
<path d="M193.016 44.9284C192.407 44.9284 191.882 44.8005 191.446 44.5431C191.007 44.2873 190.672 43.9305 190.438 43.4742C190.205 43.0179 190.088 42.4922 190.088 41.8985C190.088 41.3048 190.206 40.768 190.443 40.3133C190.68 39.8586 191.015 39.5018 191.452 39.246C191.889 38.9902 192.408 38.8623 193.01 38.8623C193.529 38.8623 193.983 38.9555 194.374 39.1418C194.764 39.3281 195.072 39.5886 195.3 39.9265C195.527 40.2628 195.653 40.6591 195.675 41.1122H194.118C194.075 40.8185 193.958 40.5833 193.771 40.4033C193.584 40.2233 193.339 40.1333 193.037 40.1333C192.781 40.1333 192.559 40.2012 192.368 40.3386C192.178 40.4743 192.031 40.6733 191.925 40.9338C191.82 41.1943 191.767 41.5085 191.767 41.878C191.767 42.2474 191.82 42.5711 191.924 42.8348C192.028 43.0969 192.176 43.2974 192.367 43.4347C192.557 43.5721 192.781 43.6416 193.037 43.6416C193.225 43.6416 193.395 43.6037 193.547 43.5263C193.699 43.4505 193.824 43.3384 193.923 43.1916C194.022 43.0448 194.087 42.8679 194.118 42.6611H195.675C195.65 43.1095 195.527 43.5042 195.306 43.8453C195.085 44.1863 194.781 44.4516 194.393 44.6426C194.006 44.8336 193.547 44.9299 193.018 44.9299L193.016 44.9284Z" fill="#0075BB"/>
<path d="M196.734 44.8145V38.9395H198.385V41.2194H198.85L200.47 38.9395H202.407L200.302 41.8541L202.429 44.8145H200.468L199 42.7303H198.385V44.8145H196.734Z" fill="#0075BB"/>
<path d="M204.235 47.017C204.025 47.017 203.83 47.0012 203.648 46.9697C203.465 46.9381 203.315 46.897 203.197 46.8497L203.569 45.6339C203.763 45.6923 203.939 45.7239 204.094 45.7302C204.251 45.735 204.386 45.7002 204.5 45.6229C204.615 45.5471 204.708 45.416 204.781 45.2329L204.879 44.9834L202.744 38.9395H204.479L205.711 43.2545H205.773L207.017 38.9395H208.765L206.453 45.4492C206.341 45.765 206.19 46.0413 206.002 46.2781C205.811 46.5134 205.573 46.6965 205.284 46.8244C204.994 46.9539 204.646 47.017 204.238 47.017H204.235Z" fill="#0075BB"/>
<path d="M212.1 44.9284C211.491 44.9284 210.967 44.8005 210.53 44.5431C210.092 44.2873 209.756 43.9305 209.523 43.4742C209.289 43.0179 209.172 42.4922 209.172 41.8985C209.172 41.3048 209.291 40.768 209.527 40.3133C209.764 39.8586 210.1 39.5018 210.536 39.246C210.973 38.9902 211.493 38.8623 212.094 38.8623C212.614 38.8623 213.068 38.9555 213.458 39.1418C213.848 39.3281 214.157 39.5886 214.384 39.9265C214.611 40.2644 214.737 40.6591 214.76 41.1122H213.202C213.159 40.8185 213.042 40.5833 212.855 40.4033C212.668 40.2233 212.423 40.1333 212.121 40.1333C211.865 40.1333 211.643 40.2012 211.453 40.3386C211.262 40.4743 211.115 40.6733 211.01 40.9338C210.904 41.1943 210.851 41.5085 210.851 41.878C210.851 42.2474 210.904 42.5711 211.008 42.8348C211.112 43.0969 211.261 43.2974 211.451 43.4347C211.641 43.5721 211.865 43.6416 212.121 43.6416C212.31 43.6416 212.479 43.6037 212.631 43.5263C212.783 43.4505 212.908 43.3384 213.007 43.1916C213.106 43.0448 213.172 42.8679 213.202 42.6611H214.76C214.734 43.1095 214.611 43.5042 214.39 43.8453C214.17 44.1863 213.866 44.4516 213.477 44.6426C213.09 44.8336 212.631 44.9299 212.102 44.9299L212.1 44.9284Z" fill="#0075BB"/>
<path d="M218.507 44.9284C217.898 44.9284 217.373 44.8005 216.937 44.5431C216.499 44.2873 216.163 43.9305 215.929 43.4742C215.696 43.0179 215.579 42.4922 215.579 41.8985C215.579 41.3048 215.697 40.768 215.934 40.3133C216.171 39.8586 216.507 39.5018 216.943 39.246C217.38 38.9902 217.899 38.8623 218.501 38.8623C219.02 38.8623 219.475 38.9555 219.865 39.1418C220.255 39.3281 220.564 39.5886 220.791 39.9265C221.018 40.2644 221.144 40.6591 221.167 41.1122H219.609C219.566 40.8185 219.449 40.5833 219.262 40.4033C219.075 40.2233 218.83 40.1333 218.528 40.1333C218.272 40.1333 218.05 40.2012 217.859 40.3386C217.669 40.4743 217.522 40.6733 217.417 40.9338C217.311 41.1943 217.258 41.5085 217.258 41.878C217.258 42.2474 217.311 42.5711 217.415 42.8348C217.519 43.0969 217.668 43.2974 217.858 43.4347C218.048 43.5721 218.272 43.6416 218.528 43.6416C218.717 43.6416 218.886 43.6037 219.038 43.5263C219.19 43.4505 219.315 43.3384 219.414 43.1916C219.513 43.0448 219.579 42.8679 219.609 42.6611H221.167C221.141 43.1095 221.018 43.5042 220.797 43.8453C220.576 44.1863 220.273 44.4516 219.884 44.6426C219.497 44.8336 219.038 44.9299 218.509 44.9299L218.507 44.9284Z" fill="#0075BB"/>
<path d="M221.833 40.2205V38.9385H227.226V40.2205H225.309V44.8151H223.736V40.2205H221.833Z" fill="#0075BB"/>
<path d="M228.229 44.8145V38.9395H230.767C231.501 38.9395 232.08 39.0768 232.507 39.3531C232.934 39.6294 233.146 40.0194 233.146 40.5278C233.146 40.8467 233.026 41.112 232.787 41.3236C232.547 41.5351 232.212 41.6788 231.787 41.7514C232.144 41.7767 232.448 41.8572 232.699 41.9899C232.951 42.1241 233.143 42.2962 233.276 42.5077C233.409 42.7193 233.476 42.9545 233.476 43.2119C233.476 43.5466 233.386 43.8324 233.207 44.0724C233.028 44.3124 232.766 44.4955 232.42 44.6234C232.075 44.7513 231.656 44.8145 231.159 44.8145H228.229ZM229.767 41.3567H230.802C230.967 41.3567 231.109 41.333 231.226 41.2857C231.344 41.2383 231.434 41.1704 231.498 41.0804C231.562 40.992 231.592 40.8846 231.592 40.7631C231.592 40.5815 231.518 40.441 231.371 40.3383C231.224 40.2357 231.023 40.1852 230.767 40.1852H229.767V41.3551V41.3567ZM229.767 43.594H231.159C231.389 43.594 231.568 43.5403 231.699 43.4314C231.829 43.3224 231.894 43.174 231.894 42.9861C231.894 42.7777 231.829 42.6119 231.699 42.4919C231.568 42.3719 231.389 42.3119 231.159 42.3119H229.767V43.594Z" fill="#0075BB"/>
<path d="M237.204 44.9284C236.603 44.9284 236.083 44.8021 235.645 44.5479C235.207 44.2937 234.87 43.94 234.633 43.4853C234.395 43.0306 234.276 42.5016 234.276 41.9001C234.276 41.2985 234.395 40.7617 234.633 40.307C234.871 39.8523 235.209 39.497 235.645 39.2428C236.083 38.9886 236.603 38.8623 237.204 38.8623C237.806 38.8623 238.325 38.9886 238.764 39.2428C239.202 39.497 239.539 39.8507 239.777 40.307C240.016 40.7617 240.134 41.2938 240.134 41.9001C240.134 42.5064 240.016 43.0306 239.777 43.4853C239.539 43.94 239.202 44.2952 238.764 44.5479C238.325 44.8021 237.806 44.9284 237.204 44.9284ZM237.212 43.6653C237.486 43.6653 237.715 43.5879 237.898 43.4332C238.082 43.2784 238.221 43.0684 238.314 42.8C238.409 42.5316 238.457 42.2269 238.457 41.8859C238.457 41.5448 238.409 41.2401 238.314 40.9717C238.22 40.7033 238.081 40.4917 237.898 40.337C237.715 40.1823 237.486 40.1033 237.212 40.1033C236.939 40.1033 236.704 40.1807 236.517 40.337C236.33 40.4933 236.189 40.7049 236.095 40.9717C236 41.2385 235.954 41.5448 235.954 41.8859C235.954 42.2269 236 42.5316 236.095 42.8C236.189 43.0684 236.33 43.2784 236.517 43.4332C236.704 43.5879 236.936 43.6653 237.212 43.6653Z" fill="#0075BB"/>
<path d="M243.372 35.5469V46.7048H241.806V35.5469H243.372Z" fill="#0075BB"/>
<path d="M64.5053 33.0073V31.7711H64.9002C65.0969 31.7711 65.2553 31.7474 65.3768 31.6984C65.4983 31.6511 65.5943 31.5784 65.6662 31.4837C65.7382 31.389 65.8006 31.2706 65.8501 31.1269L65.9397 30.8916L63.2915 25.7129H64.8858L66.6017 29.2543L68.0362 25.7129H69.6097L67.0975 31.4963C66.9759 31.7632 66.8336 32.0111 66.6689 32.2416C66.5042 32.4705 66.2931 32.6552 66.0372 32.7958C65.7814 32.9363 65.4535 33.0073 65.0554 33.0073H64.5053Z" fill="#0075BB"/>
<path d="M70.4443 32.9098V25.7148H71.9859V28.6831H75.1138V25.7148H76.6506V32.9098H75.1138V29.9368H71.9859V32.9098H70.4443Z" fill="#0075BB"/>
<path d="M77.9204 25.7148H79.4572V30.2399H79.518L82.6667 25.7148H84.0147V32.9098H82.4732V28.3816H82.4204L79.2541 32.9098H77.9204V25.7148Z" fill="#0075BB"/>
<path d="M85.2868 32.9098V25.7148H88.2052C88.7409 25.7148 89.1887 25.7938 89.5469 25.9501C89.9051 26.1064 90.1737 26.3243 90.3544 26.6022C90.5351 26.8801 90.6247 27.199 90.6247 27.559C90.6247 27.84 90.5671 28.0863 90.4536 28.2979C90.34 28.5095 90.1833 28.6831 89.985 28.8173C89.7867 28.9516 89.5613 29.0479 89.307 29.1031V29.1726C89.5853 29.1836 89.8443 29.261 90.0874 29.4047C90.3305 29.5484 90.5271 29.7473 90.6791 30.0031C90.831 30.2589 90.9061 30.5652 90.9061 30.9188C90.9061 31.3009 90.8102 31.6404 90.6199 31.9388C90.4296 32.2372 90.1466 32.474 89.7755 32.6461C89.4029 32.8198 88.944 32.9067 88.3987 32.9067H85.2852V32.9098H85.2868ZM86.8283 28.7258H87.9701C88.1812 28.7258 88.3683 28.6895 88.5346 28.6153C88.6993 28.541 88.8305 28.4368 88.9264 28.3011C89.0224 28.1653 89.0703 28.0026 89.0703 27.8132C89.0703 27.5527 88.9776 27.3443 88.7905 27.1848C88.6034 27.0253 88.3411 26.9464 87.9989 26.9464H86.8283V28.7274V28.7258ZM86.8283 31.6657H88.0837C88.5122 31.6657 88.8257 31.5836 89.0224 31.4209C89.219 31.2583 89.3182 31.0404 89.3182 30.7688C89.3182 30.5699 89.2702 30.3947 89.1727 30.2415C89.0751 30.0899 88.9376 29.9699 88.7585 29.8831C88.5794 29.7963 88.3667 29.7536 88.1204 29.7536H86.8283V31.6641V31.6657Z" fill="#0075BB"/>
<path d="M91.9082 32.9098V25.7148H96.8192V26.9685H93.4498V28.6831H96.5665V29.9368H93.4498V31.6546H96.8336V32.9082H91.9082V32.9098Z" fill="#0075BB"/>
<path d="M98.0463 32.9098V25.7148H100.922C101.475 25.7148 101.945 25.8191 102.334 26.0259C102.722 26.2327 103.02 26.5201 103.224 26.8864C103.429 27.2527 103.531 27.6758 103.531 28.1526C103.531 28.6295 103.427 29.0526 103.218 29.4173C103.008 29.782 102.708 30.0678 102.313 30.2715C101.918 30.4752 101.44 30.5778 100.88 30.5778H99.0474V29.3589H100.631C100.926 29.3589 101.173 29.3084 101.366 29.2058C101.56 29.1031 101.704 28.9626 101.799 28.781C101.895 28.5995 101.943 28.391 101.943 28.1542C101.943 27.9174 101.895 27.7058 101.799 27.5274C101.704 27.349 101.558 27.2085 101.363 27.109C101.168 27.0095 100.922 26.959 100.623 26.959H99.5831V32.9098H98.0415H98.0463Z" fill="#0075BB"/>
<path d="M110.965 28.2326H109.406C109.377 28.0337 109.319 27.8569 109.231 27.7006C109.143 27.5443 109.031 27.4116 108.894 27.3011C108.756 27.1906 108.598 27.1069 108.419 27.0485C108.24 26.9901 108.046 26.9601 107.837 26.9601C107.46 26.9601 107.132 27.0516 106.852 27.2364C106.572 27.4195 106.354 27.6879 106.201 28.0369C106.046 28.3874 105.969 28.8121 105.969 29.311C105.969 29.81 106.047 30.2552 106.203 30.6041C106.358 30.9531 106.575 31.2167 106.855 31.3951C107.135 31.5736 107.46 31.662 107.826 31.662C108.032 31.662 108.224 31.6351 108.4 31.5815C108.577 31.5278 108.734 31.4488 108.872 31.3446C109.009 31.2404 109.124 31.1141 109.215 30.9641C109.307 30.8141 109.37 30.6436 109.406 30.451L110.965 30.4573C110.925 30.7873 110.824 31.1046 110.664 31.4109C110.504 31.7172 110.29 31.9888 110.02 32.2288C109.751 32.4688 109.43 32.6583 109.059 32.7972C108.688 32.9361 108.269 33.0056 107.8 33.0056C107.151 33.0056 106.57 32.8604 106.059 32.5698C105.547 32.2793 105.144 31.8593 104.85 31.3083C104.554 30.7573 104.407 30.091 104.407 29.3094C104.407 28.5279 104.555 27.8569 104.854 27.3074C105.154 26.7564 105.56 26.338 106.071 26.0475C106.583 25.7585 107.16 25.6133 107.8 25.6133C108.222 25.6133 108.614 25.6717 108.975 25.7885C109.337 25.9054 109.658 26.0759 109.938 26.3001C110.218 26.5243 110.447 26.7974 110.623 27.1195C110.8 27.4432 110.912 27.8127 110.963 28.2295V28.2326H110.965Z" fill="#0075BB"/>
<path d="M112.073 25.7148H113.61V30.2399H113.671L116.819 25.7148H118.168V32.9098H116.626V28.3816H116.573L113.407 32.9098H112.073V25.7148Z" fill="#0075BB"/>
<path d="M119.161 26.9685V25.7148H125.146V26.9685H122.915V32.9098H121.393V26.9685H119.161Z" fill="#0075BB"/>
<path d="M126.134 32.9098V25.7148H131.045V26.9685H127.676V28.6831H130.793V29.9368H127.676V31.6546H131.06V32.9082H126.134V32.9098Z" fill="#0075BB"/>
<path d="M131.995 26.9685V25.7148H137.981V26.9685H135.75V32.9098H134.228V26.9685H131.995Z" fill="#0075BB"/>
<path d="M141.293 25.7148H142.83V30.2399H142.891L146.039 25.7148H147.387V32.9098H145.846V28.3816H145.793L142.627 32.9098H141.293V25.7148Z" fill="#0075BB"/>
<path d="M148.658 25.7148H150.558L152.565 30.5494H152.649L154.656 25.7148H156.556V32.9098H155.061V28.2268H155L153.115 32.8751H152.098L150.212 28.2095H150.151V32.9098H148.656V25.7148H148.658Z" fill="#0075BB"/>
<path d="M158.682 33.0012C158.447 33.0012 158.246 32.9191 158.079 32.7533C157.911 32.5876 157.828 32.3902 157.828 32.1581C157.828 31.926 157.911 31.7318 158.079 31.5676C158.247 31.4034 158.447 31.3213 158.682 31.3213C158.917 31.3213 159.109 31.4034 159.28 31.5676C159.451 31.7318 159.536 31.9276 159.536 32.1581C159.536 32.3128 159.496 32.4533 159.416 32.5812C159.336 32.7091 159.232 32.8102 159.104 32.8875C158.976 32.9633 158.836 33.0012 158.68 33.0012H158.682Z" fill="#0075BB"/>
<path d="M164.045 32.9098H162.395L164.91 25.7148H166.896L169.408 32.9098H167.758L165.933 27.3585H165.876L164.046 32.9098H164.045ZM163.941 30.082H167.841V31.2694H163.941V30.082Z" fill="#0075BB"/>
<path d="M171.14 33.0012C170.905 33.0012 170.703 32.9191 170.537 32.7533C170.369 32.5876 170.286 32.3902 170.286 32.1581C170.286 31.926 170.369 31.7318 170.537 31.5676C170.705 31.4034 170.905 31.3213 171.14 31.3213C171.375 31.3213 171.567 31.4034 171.738 31.5676C171.909 31.7318 171.994 31.9276 171.994 32.1581C171.994 32.3128 171.954 32.4533 171.874 32.5812C171.794 32.7091 171.69 32.8102 171.562 32.8875C171.434 32.9633 171.293 33.0012 171.138 33.0012H171.14Z" fill="#0075BB"/>
<path d="M173.264 32.9098V25.7148H174.806V28.6831H177.934V25.7148H179.47V32.9098H177.934V29.9368H174.806V32.9098H173.264Z" fill="#0075BB"/>
<path d="M181.598 33.0012C181.363 33.0012 181.161 32.9191 180.995 32.7533C180.827 32.5876 180.744 32.3902 180.744 32.1581C180.744 31.926 180.827 31.7318 180.995 31.5676C181.163 31.4034 181.363 31.3213 181.598 31.3213C181.833 31.3213 182.025 31.4034 182.196 31.5676C182.367 31.7318 182.452 31.9276 182.452 32.1581C182.452 32.3128 182.412 32.4533 182.332 32.5812C182.252 32.7091 182.148 32.8102 182.02 32.8875C181.892 32.9633 181.751 33.0012 181.596 33.0012H181.598Z" fill="#0075BB"/>
<path d="M190.112 32.9098L187.771 29.842H187.245V32.9098H185.704V25.7148H187.245V28.5884H187.555L189.975 25.7148H191.892L189.049 29.0526L192.023 32.9098H190.112Z" fill="#0075BB"/>
<path d="M199.083 29.3104C199.083 30.0951 198.932 30.763 198.633 31.3124C198.333 31.8635 197.925 32.2819 197.41 32.5724C196.893 32.8613 196.315 33.0066 195.672 33.0066C195.029 33.0066 194.444 32.8613 193.929 32.5708C193.414 32.2803 193.008 31.8603 192.708 31.3093C192.409 30.7583 192.261 30.092 192.261 29.3104C192.261 28.5289 192.409 27.8579 192.708 27.3084C193.008 26.7574 193.414 26.339 193.929 26.0485C194.444 25.7595 195.024 25.6143 195.672 25.6143C196.319 25.6143 196.893 25.7595 197.41 26.0485C197.926 26.3374 198.334 26.7574 198.633 27.3084C198.934 27.8594 199.083 28.5257 199.083 29.3104ZM197.52 29.3104C197.52 28.802 197.444 28.3741 197.29 28.0252C197.137 27.6763 196.922 27.411 196.644 27.231C196.366 27.051 196.041 26.961 195.669 26.961C195.296 26.961 194.971 27.051 194.693 27.231C194.415 27.411 194.2 27.6763 194.047 28.0252C193.893 28.3741 193.817 28.8036 193.817 29.3104C193.817 29.8172 193.893 30.2467 194.047 30.5956C194.2 30.9446 194.415 31.2098 194.693 31.3898C194.971 31.5698 195.296 31.6598 195.669 31.6598C196.041 31.6598 196.366 31.5698 196.644 31.3898C196.922 31.2098 197.137 30.9446 197.29 30.5956C197.444 30.2467 197.52 29.8188 197.52 29.3104Z" fill="#0075BB"/>
<path d="M206.651 28.2326H205.092C205.063 28.0337 205.005 27.8569 204.917 27.7006C204.829 27.5443 204.718 27.4116 204.58 27.3011C204.442 27.1906 204.284 27.1069 204.105 27.0485C203.926 26.9901 203.732 26.9601 203.523 26.9601C203.146 26.9601 202.818 27.0516 202.538 27.2364C202.258 27.4195 202.041 27.6879 201.887 28.0369C201.732 28.3874 201.655 28.8121 201.655 29.311C201.655 29.81 201.733 30.2552 201.889 30.6041C202.044 30.9531 202.261 31.2167 202.541 31.3951C202.821 31.5736 203.146 31.662 203.512 31.662C203.718 31.662 203.91 31.6351 204.086 31.5815C204.263 31.5278 204.42 31.4488 204.558 31.3446C204.695 31.2404 204.81 31.1141 204.901 30.9641C204.993 30.8141 205.057 30.6436 205.092 30.451L206.651 30.4573C206.611 30.7873 206.51 31.1046 206.35 31.4109C206.19 31.7172 205.976 31.9888 205.706 32.2288C205.437 32.4688 205.116 32.6583 204.745 32.7972C204.374 32.9361 203.955 33.0056 203.486 33.0056C202.837 33.0056 202.256 32.8604 201.745 32.5698C201.233 32.2793 200.83 31.8593 200.536 31.3083C200.24 30.7573 200.093 30.091 200.093 29.3094C200.093 28.5279 200.242 27.8569 200.541 27.3074C200.84 26.7564 201.246 26.338 201.757 26.0475C202.269 25.7585 202.846 25.6133 203.486 25.6133C203.908 25.6133 204.3 25.6717 204.662 25.7885C205.023 25.9054 205.344 26.0759 205.624 26.3001C205.904 26.5243 206.133 26.7974 206.309 27.1195C206.486 27.4432 206.598 27.8127 206.649 28.2295V28.2326H206.651Z" fill="#0075BB"/>
<path d="M208.771 28.3737H210.508C211.087 28.3737 211.586 28.4653 212.005 28.65C212.424 28.8347 212.747 29.0937 212.974 29.4284C213.201 29.7631 213.314 30.1578 213.311 30.6125C213.314 31.0641 213.201 31.4636 212.974 31.8093C212.747 32.1551 212.424 32.4251 212.005 32.6193C211.586 32.8135 211.087 32.9114 210.508 32.9114H207.786V25.7164H209.323V31.6893H210.508C210.786 31.6893 211.02 31.6404 211.208 31.5393C211.399 31.4399 211.543 31.3072 211.64 31.143C211.738 30.9773 211.787 30.7973 211.784 30.5999C211.787 30.3141 211.678 30.0726 211.458 29.8752C211.239 29.6778 210.92 29.5784 210.506 29.5784H208.77V28.3737H208.771ZM215.443 25.7148V32.9098H213.906V25.7148H215.443Z" fill="#0075BB"/>
<path d="M221.551 25.7148V26.9685H218.256V32.9098H216.715V25.7148H221.551Z" fill="#0075BB"/>
<path d="M222.539 25.7148H224.075V30.2399H224.136L227.285 25.7148H228.633V32.9098H227.091V28.3816H227.039L223.872 32.9098H222.539V25.7148Z" fill="#0075BB"/>
<path d="M229.905 32.9098V25.7148H231.446V28.6831H234.574V25.7148H236.111V32.9098H234.574V29.9368H231.446V32.9098H229.905Z" fill="#0075BB"/>
<path d="M238.638 32.9098H236.987L239.503 25.7148H241.489L244.001 32.9098H242.351L240.526 27.3585H240.469L238.639 32.9098H238.638ZM238.534 30.082H242.434V31.2694H238.534V30.082Z" fill="#0075BB"/>
<path d="M63.5938 21.1355V14.04H66.429C66.9743 14.04 67.4381 14.1427 67.8219 14.3463C68.2057 14.55 68.4983 14.8342 68.7014 15.1958C68.9029 15.5573 69.0052 15.9742 69.0052 16.4447C69.0052 16.9152 68.9029 17.332 68.6966 17.692C68.4903 18.052 68.1929 18.333 67.8043 18.5335C67.4141 18.7341 66.944 18.8351 66.3922 18.8351H64.5852V17.632H66.1476C66.4402 17.632 66.6817 17.5815 66.872 17.482C67.0623 17.381 67.2046 17.242 67.3006 17.062C67.3949 16.8836 67.4429 16.6768 67.4429 16.4431C67.4429 16.2094 67.3949 16.001 67.3006 15.8242C67.2062 15.6473 67.0623 15.51 66.8704 15.4121C66.6785 15.3142 66.4354 15.2653 66.1396 15.2653H65.1145V21.1355H63.5938Z" fill="#0075BB"/>
<path d="M76.5994 17.588C76.5994 18.3617 76.4507 19.0201 76.1549 19.5632C75.859 20.1063 75.4561 20.52 74.9475 20.8058C74.439 21.0916 73.8665 21.2337 73.2332 21.2337C72.6 21.2337 72.0211 21.09 71.5142 20.8042C71.0072 20.5184 70.6059 20.1032 70.31 19.56C70.0158 19.0169 69.8687 18.3601 69.8687 17.588C69.8687 16.8159 70.0158 16.156 70.31 15.6128C70.6043 15.0697 71.0056 14.656 71.5142 14.3703C72.0227 14.0845 72.5952 13.9424 73.2332 13.9424C73.8713 13.9424 74.439 14.0845 74.9475 14.3703C75.4561 14.656 75.859 15.0697 76.1549 15.6128C76.4507 16.156 76.5994 16.8144 76.5994 17.588ZM75.0595 17.588C75.0595 17.0875 74.9843 16.6644 74.8324 16.3202C74.6805 15.976 74.4694 15.7155 74.1959 15.5371C73.9225 15.3586 73.6011 15.2702 73.2348 15.2702C72.8686 15.2702 72.5472 15.3586 72.2738 15.5371C72.0003 15.7155 71.7876 15.976 71.6373 16.3202C71.487 16.6644 71.4102 17.0875 71.4102 17.588C71.4102 18.0885 71.4854 18.5117 71.6373 18.8559C71.7876 19.2001 72.0003 19.4606 72.2738 19.639C72.5472 19.8174 72.8686 19.9058 73.2348 19.9058C73.6011 19.9058 73.9225 19.8174 74.1959 19.639C74.4694 19.4606 74.6821 19.2001 74.8324 18.8559C74.9827 18.5117 75.0595 18.0885 75.0595 17.588Z" fill="#0075BB"/>
<path d="M84.0651 16.5239H82.5283C82.5011 16.3281 82.4435 16.1528 82.3572 15.9997C82.2708 15.8465 82.1589 15.7155 82.0246 15.6065C81.8886 15.4976 81.7319 15.4155 81.556 15.3571C81.3785 15.2986 81.1882 15.2702 80.9819 15.2702C80.6093 15.2702 80.2863 15.3602 80.0096 15.5418C79.733 15.7234 79.5187 15.987 79.3668 16.3312C79.2149 16.677 79.1381 17.0954 79.1381 17.588C79.1381 18.0806 79.2149 18.5196 79.3684 18.8638C79.5219 19.208 79.7362 19.4685 80.0128 19.6437C80.2895 19.819 80.6077 19.9074 80.9707 19.9074C81.1738 19.9074 81.3625 19.8806 81.5368 19.8269C81.7111 19.7732 81.8663 19.6958 82.0022 19.5932C82.1381 19.4906 82.25 19.3658 82.3412 19.2174C82.4307 19.069 82.4947 18.9017 82.5283 18.7122L84.0651 18.7185C84.0251 19.0438 83.9259 19.358 83.7692 19.6595C83.6109 19.9611 83.3998 20.2295 83.1344 20.4663C82.8689 20.7032 82.5523 20.8895 82.1861 21.0268C81.8199 21.1642 81.4057 21.2337 80.9451 21.2337C80.3039 21.2337 79.7314 21.09 79.2277 20.8042C78.7239 20.5184 78.3258 20.1032 78.0347 19.56C77.7437 19.0169 77.5981 18.3601 77.5981 17.588C77.5981 16.8159 77.7453 16.156 78.0395 15.6128C78.3337 15.0697 78.7351 14.656 79.2389 14.3703C79.7442 14.0845 80.3135 13.9424 80.9451 13.9424C81.3609 13.9424 81.7479 14.0008 82.1045 14.1161C82.4611 14.2313 82.7778 14.4003 83.0544 14.6197C83.3311 14.8392 83.5549 15.1108 83.7292 15.4281C83.9036 15.747 84.0155 16.1118 84.0651 16.5239Z" fill="#0075BB"/>
<path d="M91.4967 16.5239H89.9599C89.9328 16.3281 89.8752 16.1528 89.7888 15.9997C89.7025 15.8465 89.5905 15.7155 89.4562 15.6065C89.3203 15.4976 89.1636 15.4155 88.9877 15.3571C88.8102 15.2986 88.6199 15.2702 88.4136 15.2702C88.041 15.2702 87.7179 15.3602 87.4413 15.5418C87.1646 15.7234 86.9504 15.987 86.7984 16.3312C86.6465 16.677 86.5698 17.0954 86.5698 17.588C86.5698 18.0806 86.6465 18.5196 86.8 18.8638C86.9536 19.208 87.1678 19.4685 87.4445 19.6437C87.7211 19.819 88.0394 19.9074 88.4024 19.9074C88.6055 19.9074 88.7942 19.8806 88.9685 19.8269C89.1428 19.7732 89.2979 19.6958 89.4338 19.5932C89.5698 19.4906 89.6817 19.3658 89.7728 19.2174C89.8624 19.069 89.9264 18.9017 89.9599 18.7122L91.4967 18.7185C91.4567 19.0438 91.3576 19.358 91.2009 19.6595C91.0426 19.9611 90.8315 20.2295 90.566 20.4663C90.3006 20.7032 89.9839 20.8895 89.6177 21.0268C89.2515 21.1642 88.8373 21.2337 88.3768 21.2337C87.7355 21.2337 87.163 21.09 86.6593 20.8042C86.1556 20.5184 85.7574 20.1032 85.4663 19.56C85.1753 19.0169 85.0298 18.3601 85.0298 17.588C85.0298 16.8159 85.1769 16.156 85.4711 15.6128C85.7654 15.0697 86.1668 14.656 86.6705 14.3703C87.1758 14.0845 87.7451 13.9424 88.3768 13.9424C88.7926 13.9424 89.1796 14.0008 89.5362 14.1161C89.8928 14.2313 90.2094 14.4003 90.4861 14.6197C90.7627 14.8392 90.9866 15.1108 91.1609 15.4281C91.3352 15.747 91.4471 16.1118 91.4967 16.5239Z" fill="#0075BB"/>
<path d="M92.5879 14.0381H94.1039V18.5016H94.163L97.2686 14.0381H98.5991V21.1336H97.0799V16.6669H97.0271L93.904 21.1336H92.5879V14.0381Z" fill="#0075BB"/>
<path d="M99.8521 14.0384H101.368V18.5019H101.427L104.533 14.0384H105.863V21.1339H104.344V16.6672H104.291L101.168 21.1339H99.8521V14.0384ZM103.557 12.1816H104.6C104.597 12.6016 104.44 12.9411 104.128 13.1969C103.816 13.4526 103.394 13.5821 102.863 13.5821C102.332 13.5821 101.907 13.4542 101.597 13.1969C101.285 12.9411 101.13 12.6016 101.13 12.1816H102.164C102.163 12.3411 102.214 12.4848 102.321 12.6111C102.428 12.7374 102.609 12.8021 102.863 12.8021C103.118 12.8021 103.289 12.7406 103.397 12.6143C103.504 12.4895 103.559 12.3458 103.559 12.1816H103.557Z" fill="#0075BB"/>
<path d="M113.458 16.5239H111.921C111.894 16.3281 111.837 16.1528 111.75 15.9997C111.664 15.8465 111.552 15.7155 111.418 15.6065C111.282 15.4976 111.125 15.4155 110.949 15.3571C110.772 15.2986 110.581 15.2702 110.375 15.2702C110.002 15.2702 109.679 15.3602 109.403 15.5418C109.126 15.7234 108.912 15.987 108.76 16.3312C108.608 16.677 108.531 17.0954 108.531 17.588C108.531 18.0806 108.608 18.5196 108.761 18.8638C108.915 19.208 109.129 19.4685 109.406 19.6437C109.683 19.819 110.001 19.9074 110.364 19.9074C110.567 19.9074 110.756 19.8806 110.93 19.8269C111.104 19.7732 111.259 19.6958 111.395 19.5932C111.531 19.4906 111.643 19.3658 111.734 19.2174C111.824 19.069 111.888 18.9017 111.921 18.7122L113.458 18.7185C113.418 19.0438 113.319 19.358 113.162 19.6595C113.004 19.9611 112.793 20.2295 112.527 20.4663C112.262 20.7032 111.945 20.8895 111.579 21.0268C111.213 21.1642 110.799 21.2337 110.338 21.2337C109.697 21.2337 109.124 21.09 108.621 20.8042C108.117 20.5184 107.719 20.1032 107.428 19.56C107.137 19.0169 106.991 18.3601 106.991 17.588C106.991 16.8159 107.138 16.156 107.433 15.6128C107.727 15.0697 108.128 14.656 108.632 14.3703C109.137 14.0845 109.707 13.9424 110.338 13.9424C110.754 13.9424 111.141 14.0008 111.498 14.1161C111.854 14.2313 112.171 14.4003 112.447 14.6197C112.724 14.8392 112.948 15.1108 113.122 15.4281C113.297 15.747 113.409 16.1118 113.458 16.5239Z" fill="#0075BB"/>
<path d="M118.897 21.1355L116.588 18.1104H116.068V21.1355H114.549V14.04H116.068V16.8741H116.373L118.759 14.04H120.651L117.848 17.332L120.782 21.1371H118.897V21.1355Z" fill="#0075BB"/>
<path d="M121.543 14.0381H123.059V18.5016H123.119L126.224 14.0381H127.555V21.1336H126.035V16.6669H125.983L122.86 21.1336H121.543V14.0381Z" fill="#0075BB"/>
<path d="M128.807 14.0384H130.323V18.5019H130.382L133.487 14.0384H134.818V21.1339H133.299V16.6672H133.246L130.123 21.1339H128.807V14.0384ZM132.512 12.1816H133.554C133.551 12.6016 133.395 12.9411 133.083 13.1969C132.771 13.4526 132.349 13.5821 131.818 13.5821C131.287 13.5821 130.862 13.4542 130.551 13.1969C130.239 12.9411 130.084 12.6016 130.084 12.1816H131.119C131.117 12.3411 131.169 12.4848 131.276 12.6111C131.383 12.7374 131.564 12.8021 131.818 12.8021C132.072 12.8021 132.243 12.7406 132.352 12.6143C132.459 12.4895 132.513 12.3458 132.513 12.1816H132.512Z" fill="#0075BB"/>
<path d="M143.132 14.0381V15.2744H139.882V21.1336H138.363V14.0381H143.132Z" fill="#0075BB"/>
<path d="M150.393 17.588C150.393 18.3617 150.244 19.0201 149.948 19.5632C149.652 20.1063 149.25 20.52 148.741 20.8058C148.232 21.0916 147.66 21.2337 147.027 21.2337C146.393 21.2337 145.815 21.09 145.308 20.8042C144.801 20.5184 144.399 20.1032 144.103 19.56C143.809 19.0169 143.662 18.3601 143.662 17.588C143.662 16.8159 143.809 16.156 144.103 15.6128C144.398 15.0697 144.799 14.656 145.308 14.3703C145.816 14.0845 146.389 13.9424 147.027 13.9424C147.665 13.9424 148.232 14.0845 148.741 14.3703C149.25 14.656 149.652 15.0697 149.948 15.6128C150.244 16.156 150.393 16.8144 150.393 17.588ZM148.853 17.588C148.853 17.0875 148.778 16.6644 148.626 16.3202C148.474 15.976 148.263 15.7155 147.989 15.5371C147.716 15.3586 147.395 15.2702 147.028 15.2702C146.662 15.2702 146.341 15.3586 146.067 15.5371C145.794 15.7155 145.581 15.976 145.431 16.3202C145.28 16.6644 145.204 17.0875 145.204 17.588C145.204 18.0885 145.279 18.5117 145.431 18.8559C145.581 19.2001 145.794 19.4606 146.067 19.639C146.341 19.8174 146.662 19.9058 147.028 19.9058C147.395 19.9058 147.716 19.8174 147.989 19.639C148.263 19.4606 148.476 19.2001 148.626 18.8559C148.776 18.5117 148.853 18.0885 148.853 17.588Z" fill="#0075BB"/>
<path d="M157.858 16.5239H156.321C156.294 16.3281 156.237 16.1528 156.15 15.9997C156.064 15.8465 155.952 15.7155 155.818 15.6065C155.682 15.4976 155.525 15.4155 155.349 15.3571C155.171 15.2986 154.981 15.2702 154.775 15.2702C154.402 15.2702 154.079 15.3602 153.803 15.5418C153.526 15.7234 153.312 15.987 153.16 16.3312C153.008 16.677 152.931 17.0954 152.931 17.588C152.931 18.0806 153.008 18.5196 153.161 18.8638C153.315 19.208 153.529 19.4685 153.806 19.6437C154.082 19.819 154.401 19.9074 154.764 19.9074C154.967 19.9074 155.155 19.8806 155.33 19.8269C155.504 19.7732 155.659 19.6958 155.795 19.5932C155.931 19.4906 156.043 19.3658 156.134 19.2174C156.224 19.069 156.288 18.9017 156.321 18.7122L157.858 18.7185C157.818 19.0438 157.719 19.358 157.562 19.6595C157.404 19.9611 157.193 20.2295 156.927 20.4663C156.662 20.7032 156.345 20.8895 155.979 21.0268C155.613 21.1642 155.199 21.2337 154.738 21.2337C154.097 21.2337 153.524 21.09 153.021 20.8042C152.517 20.5184 152.119 20.1032 151.828 19.56C151.537 19.0169 151.391 18.3601 151.391 17.588C151.391 16.8159 151.538 16.156 151.832 15.6128C152.127 15.0697 152.528 14.656 153.032 14.3703C153.537 14.0845 154.106 13.9424 154.738 13.9424C155.154 13.9424 155.541 14.0008 155.898 14.1161C156.254 14.2313 156.571 14.4003 156.847 14.6197C157.124 14.8392 157.348 15.1108 157.522 15.4281C157.697 15.747 157.808 16.1118 157.858 16.5239Z" fill="#0075BB"/>
<path d="M159.724 21.2315V20.0126H160.115C160.308 20.0126 160.465 19.9889 160.585 19.9415C160.705 19.8942 160.799 19.8231 160.871 19.73C160.943 19.6368 161.002 19.5184 161.052 19.3779L161.14 19.1458L158.528 14.0381H160.1L161.792 17.5306L163.206 14.0381H164.757L162.28 19.741C162.16 20.0047 162.019 20.2494 161.858 20.4752C161.695 20.701 161.488 20.8841 161.234 21.0231C160.981 21.162 160.658 21.2315 160.265 21.2315H159.724Z" fill="#0075BB"/>
<path d="M165.192 22.8464V19.9397H165.68C165.846 19.8213 165.998 19.6555 166.135 19.4392C166.273 19.2229 166.391 18.9245 166.49 18.5424C166.588 18.1603 166.658 17.6598 166.701 17.0409L166.905 14.041H171.66V19.9413H172.447V22.8417H170.987V21.1365H166.654V22.848H165.192V22.8464ZM167.434 19.9397H170.199V15.2757H168.272L168.16 17.0393C168.13 17.5082 168.08 17.9235 168.011 18.2866C167.942 18.6498 167.859 18.9656 167.762 19.2371C167.664 19.5087 167.555 19.7424 167.434 19.9381V19.9397Z" fill="#0075BB"/>
<path d="M174.608 21.1355H172.98L175.462 14.04H177.419L179.896 21.1355H178.268L176.468 15.6616H176.412L174.608 21.1355ZM174.506 18.3457H178.352V19.5172H174.506V18.3457Z" fill="#0075BB"/>
<path d="M180.76 21.1355V14.04H183.595C184.14 14.04 184.604 14.1427 184.988 14.3463C185.372 14.55 185.664 14.8342 185.867 15.1958C186.069 15.5573 186.171 15.9742 186.171 16.4447C186.171 16.9152 186.069 17.332 185.863 17.692C185.656 18.052 185.359 18.333 184.97 18.5335C184.58 18.7341 184.11 18.8351 183.558 18.8351H181.751V17.632H183.314C183.606 17.632 183.848 17.5815 184.038 17.482C184.228 17.381 184.371 17.242 184.467 17.062C184.561 16.8836 184.609 16.6768 184.609 16.4431C184.609 16.2094 184.561 16.001 184.467 15.8242C184.372 15.6473 184.228 15.51 184.036 15.4121C183.845 15.3142 183.601 15.2653 183.306 15.2653H182.281V21.1355H180.76Z" fill="#0075BB"/>
<path d="M193.502 16.5239H191.965C191.938 16.3281 191.881 16.1528 191.794 15.9997C191.708 15.8465 191.596 15.7155 191.462 15.6065C191.326 15.4976 191.169 15.4155 190.993 15.3571C190.816 15.2986 190.625 15.2702 190.419 15.2702C190.046 15.2702 189.723 15.3602 189.447 15.5418C189.17 15.7234 188.956 15.987 188.804 16.3312C188.652 16.677 188.575 17.0954 188.575 17.588C188.575 18.0806 188.652 18.5196 188.805 18.8638C188.959 19.208 189.173 19.4685 189.45 19.6437C189.727 19.819 190.045 19.9074 190.408 19.9074C190.611 19.9074 190.8 19.8806 190.974 19.8269C191.148 19.7732 191.303 19.6958 191.439 19.5932C191.575 19.4906 191.687 19.3658 191.778 19.2174C191.868 19.069 191.932 18.9017 191.965 18.7122L193.502 18.7185C193.462 19.0438 193.363 19.358 193.206 19.6595C193.048 19.9611 192.837 20.2295 192.571 20.4663C192.306 20.7032 191.989 20.8895 191.623 21.0268C191.257 21.1642 190.843 21.2337 190.382 21.2337C189.741 21.2337 189.168 21.09 188.665 20.8042C188.161 20.5184 187.763 20.1032 187.472 19.56C187.181 19.0169 187.035 18.3601 187.035 17.588C187.035 16.8159 187.182 16.156 187.477 15.6128C187.771 15.0697 188.172 14.656 188.676 14.3703C189.181 14.0845 189.751 13.9424 190.382 13.9424C190.798 13.9424 191.185 14.0008 191.542 14.1161C191.898 14.2313 192.215 14.4003 192.491 14.6197C192.768 14.8392 192.992 15.1108 193.166 15.4281C193.341 15.747 193.453 16.1118 193.502 16.5239Z" fill="#0075BB"/>
<path d="M194.319 15.2763V14.04H200.221V15.2763H198.021V21.1355H196.519V15.2763H194.319Z" fill="#0075BB"/>
<path d="M201.198 21.1355V14.04H204.076C204.606 14.04 205.045 14.1174 205.399 14.2721C205.752 14.4269 206.018 14.6416 206.195 14.9147C206.373 15.1879 206.462 15.5037 206.462 15.8589C206.462 16.1368 206.406 16.3799 206.294 16.5884C206.182 16.7968 206.029 16.9689 205.832 17.1015C205.637 17.2341 205.413 17.3289 205.164 17.3841V17.4536C205.437 17.4646 205.695 17.542 205.934 17.6825C206.174 17.823 206.369 18.0204 206.518 18.273C206.667 18.5256 206.742 18.8272 206.742 19.1761C206.742 19.5535 206.648 19.8882 206.459 20.1819C206.27 20.4771 205.992 20.7092 205.626 20.8798C205.258 21.0503 204.805 21.1355 204.268 21.1355H201.198ZM202.717 17.0083H203.843C204.051 17.0083 204.236 16.972 204.399 16.8994C204.562 16.8268 204.69 16.7226 204.785 16.5899C204.879 16.4573 204.927 16.2947 204.927 16.1084C204.927 15.8526 204.836 15.6458 204.652 15.4879C204.468 15.3316 204.207 15.2526 203.872 15.2526H202.717V17.0099V17.0083ZM202.717 19.9087H203.956C204.38 19.9087 204.689 19.8282 204.882 19.6672C205.076 19.5061 205.173 19.293 205.173 19.0246C205.173 18.8288 205.125 18.6551 205.029 18.5051C204.933 18.3551 204.797 18.2367 204.62 18.1514C204.442 18.0662 204.233 18.0236 203.99 18.0236H202.715V19.9087H202.717Z" fill="#0075BB"/>
<path d="M207.728 21.1355V14.04H212.57V15.2763H209.247V16.9673H212.32V18.2036H209.247V19.8977H212.584V21.134H207.728V21.1355Z" fill="#0075BB"/>
<path d="M213.782 21.1355V14.04H215.301V16.9673H218.386V14.04H219.902V21.1355H218.386V18.2036H215.301V21.1355H213.782Z" fill="#0075BB"/>
<path d="M221.156 21.1355V14.04H222.675V16.9673H225.76V14.04H227.276V21.1355H225.76V18.2036H222.675V21.1355H221.156Z" fill="#0075BB"/>
<path d="M229.528 16.6626H231.241C231.812 16.6626 232.305 16.7526 232.717 16.9341C233.13 17.1157 233.45 17.3715 233.673 17.7015C233.897 18.0315 234.009 18.4214 234.006 18.8698C234.009 19.3151 233.897 19.7082 233.673 20.0493C233.45 20.3903 233.13 20.6556 232.717 20.8482C232.305 21.0392 231.812 21.1355 231.241 21.1355H228.556V14.04H230.072V19.9309H231.241C231.515 19.9309 231.745 19.8819 231.932 19.784C232.119 19.6861 232.261 19.5551 232.359 19.3925C232.456 19.2298 232.503 19.0514 232.501 18.8572C232.504 18.5746 232.397 18.3362 232.18 18.142C231.964 17.9462 231.65 17.8499 231.241 17.8499H229.528V16.6641V16.6626ZM236.109 14.04V21.1355H234.593V14.04H236.109Z" fill="#0075BB"/>
<path d="M237.361 14.0384H238.877V18.5019H238.936L242.042 14.0384H243.373V21.1339H241.853V16.6672H241.801L238.677 21.1339H237.361V14.0384ZM241.067 12.1816H242.109C242.106 12.6016 241.949 12.9411 241.637 13.1969C241.326 13.4526 240.903 13.5821 240.373 13.5821C239.842 13.5821 239.416 13.4542 239.106 13.1969C238.794 12.9411 238.639 12.6016 238.639 12.1816H239.674C239.672 12.3411 239.723 12.4848 239.83 12.6111C239.938 12.7374 240.118 12.8021 240.373 12.8021C240.627 12.8021 240.798 12.7406 240.907 12.6143C241.014 12.4895 241.068 12.3458 241.068 12.1816H241.067Z" fill="#0075BB"/>
</svg>
